<?xml version="1.0" encoding="iso-8859-1"?>
<!-- Generator: Adobe Illustrator 19.0.0, SVG Export Plug-In . SVG Version: 6.00 Build 0)  -->
<svg version="1.1" id="Layer_1" xmlns="http://www.w3.org/2000/svg" xmlns:xlink="http://www.w3.org/1999/xlink" x="0px" y="0px"
	 viewBox="0 0 496.2 496.2" style="enable-background:new 0 0 496.2 496.2;" xml:space="preserve">
<path style="fill:#FABC3D;" d="M496.2,248.1C496.2,111.1,385.1,0,248.1,0S0,111.1,0,248.1s111.1,248.1,248.1,248.1
	S496.2,385.1,496.2,248.1z"/>
<path style="fill:#B1B2B2;" d="M254.8,365.1c60.6-0.8,109.6-17.9,109.3-38.3c0-0.1,0-8.7,0-8.8l-2.2-133.9L142.2,187l2.3,130.8v9.5
	C144.5,347.5,194.1,365.9,254.8,365.1z"/>
<polygon style="fill:#238587;" points="142.1,178.6 361.6,175.8 363.9,309.9 144.3,312.7 "/>
<path style="fill:#B1B2B2;" d="M361.6,175c-0.3-20.4-49.6-36.2-110.2-35.5c-60.6,0.8-109.6,17.9-109.3,38.3c0,3.9-0.1,18.6,0,22.6
	c0.3,20.4,49.6,36.2,110.3,35.5C313,235.1,362,218,361.7,197.6C361.6,193.7,361.7,179,361.6,175z"/>
<path style="fill:#CCCECE;" d="M149.2,177.7c-0.2-19,45.5-35.1,102.2-35.8s102.9,14.1,103.1,33.2c0.2,19-45.5,35.1-102.2,35.8
	S149.4,196.8,149.2,177.7z"/>
<path style="fill:#238587;" d="M144.3,312.8c-0.3-20.4,48.7-37.5,109.3-38.3s110,15.1,110.3,35.5s-48.7,37.5-109.3,38.3
	S144.6,333.2,144.3,312.8z"/>
<g>
	<path style="fill:#CCCECE;" d="M264.3,231.9c0,12.8-5,31.5-11.3,31.5c-6.2,0-11.3-18.7-11.3-31.5s5.1-14.8,11.3-14.8
		C259.3,217.1,264.3,219.1,264.3,231.9z"/>
	<path style="fill:#CCCECE;" d="M241.8,348.2c0-12.8,5.1-31.5,11.3-31.5c6.2,0,11.3,18.7,11.3,31.5s-5,14.8-11.3,14.8
		C246.8,363.1,241.8,361,241.8,348.2z"/>
	<path style="fill:#CCCECE;" d="M152,205c0,12.8-3.8,31.5-8.5,31.5S135,217.8,135,205s3.8-14.8,8.5-14.8
		C148.2,190.2,152,192.2,152,205z"/>
	<path style="fill:#CCCECE;" d="M134.9,311c0-12.8,3.8-31.5,8.5-31.5s8.5,18.7,8.5,31.5s-3.8,14.8-8.5,14.8
		C138.8,325.9,134.9,323.8,134.9,311z"/>
	<path style="fill:#CCCECE;" d="M369.6,205c0,12.8-3.8,31.5-8.5,31.5s-8.5-18.7-8.5-31.5s3.8-14.8,8.5-14.8
		C365.8,190.2,369.6,192.2,369.6,205z"/>
	<path style="fill:#CCCECE;" d="M352.6,311c0-12.8,3.8-31.5,8.5-31.5s8.5,18.7,8.5,31.5s-3.8,14.8-8.5,14.8
		C356.4,325.9,352.6,323.8,352.6,311z"/>
</g>
<path style="fill:#5B371E;" d="M364.9,170.6l-225.6-5.1c-1.6,0-3-1.3-3-3c0-1.6,1.3-3,3-3l225.6-5.1c4.5,0,8.1,3.6,8.1,8.1
	C373,166.9,369.3,170.6,364.9,170.6z"/>
<path style="fill:#6D4326;" d="M360.8,129.2l-207.6,88.2c-1.5,0.7-3.2,0-3.9-1.5s0-3.3,1.5-3.9l203.4-97.6c4.1-1.8,8.9,0,10.7,4
	C366.7,122.6,364.9,127.4,360.8,129.2z"/>
<g>
</g>
<g>
</g>
<g>
</g>
<g>
</g>
<g>
</g>
<g>
</g>
<g>
</g>
<g>
</g>
<g>
</g>
<g>
</g>
<g>
</g>
<g>
</g>
<g>
</g>
<g>
</g>
<g>
</g>
</svg>
