<?xml version="1.0" encoding="iso-8859-1"?>
<!-- Generator: Adobe Illustrator 19.0.0, SVG Export Plug-In . SVG Version: 6.00 Build 0)  -->
<svg version="1.1" id="Layer_1" xmlns="http://www.w3.org/2000/svg" xmlns:xlink="http://www.w3.org/1999/xlink" x="0px" y="0px"
	 viewBox="0 0 496.2 496.2" style="enable-background:new 0 0 496.2 496.2;" xml:space="preserve">
<path style="fill:#25B7D3;" d="M496.2,248.1C496.2,111.1,385.1,0,248.1,0S0,111.1,0,248.1s111.1,248.1,248.1,248.1
	S496.2,385.1,496.2,248.1z"/>
<path d="M239.1,287.3l22.6,0.8c0.9,9.1,0.2,26.3,15.2,26.3c0,0,10.5-0.2,14.8-16s16.5-7.6,19.1-1.2c1.6,4.1,7,17.1-2.3,31.9
	c0,0-11.7,21-6.6,32.7c0,0,14.6,30.2,16.3,40.1c5.4,30.3-4.3,50.6-17,57.2c-9.6,5-17.5,6.1-52.9,6.1l0,0l0,0l0,0l0,0
	c-35.4,0-43.3-1.2-52.9-6.1c-12.7-6.6-22.5-26.8-17-57.2c1.8-9.9,17.8-39.3,17.8-39.3c8.5-20.2,5.6-25.3-0.6-40.1
	c-6.2-14.8-8.8-34.8-6-44.9c1.8-6.7,7.6-20.4,18.3-14.8c4.3,2.3,4.7,16.1,8,22.4C218.1,290,224.9,299.2,239.1,287.3z"/>
<path style="fill:#F5F5F5;" d="M305.5,421.4L305.5,421.4c-3.3,0-7-4.3-10.6-8.4c-1.5-1.7-2.9-3.4-4.2-4.5c-2-1.8-11.2-6.9-27.1-6.9
	c-1.2,0-2.5,0-3.7,0.1c-5,0.2-9.2,0.4-13.2,0.4c-10.3,0-20.8-1.1-27.6-9.4c-8.5-10.4,1.5-34,2-35l0.4-1c3.3-7.9,4.5-10.9,6.7-19.2
	c2.8-11.2-2.9-29.6-3-29.8v-0.2c0-2.8,2.1-4.3,5.9-4.3c2.2,0,4.1,0.5,4.2,0.5h0.1c0.6,0.3,1.6,1.1,3.1,2.2
	c5.9,4.3,18,13.3,34.6,16.7c1.4,0.3,2.9,0.4,4.2,0.4c16.8,0,22.2-22.8,22.2-23.1v-0.1c0.2-0.6,0.8-2.2,2-2.2c1.8,0,3.1,4.1,3.4,5.4
	c4.7,11.2-7.1,31.4-7.6,32.3c-6.5,11.9-2.6,28.9-2.6,29c0.6,2.4,2.5,6.7,4.7,11.7c3.1,7.1,7,16,9.6,24.4c5.5,17.9-2.1,20.5-2.4,20.6
	C306.4,421.3,306,421.4,305.5,421.4z"/>
<path style="fill:#3B3633;" d="M262.8,356.2c0,2-1.7,3.7-3.7,3.7h-22.2c-2,0-3.7-1.7-3.7-3.7l0,0c0-2,1.7-3.7,3.7-3.7h22.2
	C261.2,352.5,262.8,354.2,262.8,356.2L262.8,356.2z"/>
<path style="fill:#59514D;" d="M262.3,327.2h-25.2c-2.3,0-4.2,1.7-4.2,3.7s1.9,3.7,4.2,3.7h25.2c2.3,0,4.2-1.7,4.2-3.7
	S264.6,327.2,262.3,327.2z"/>
<g>
	<path style="fill:#3B3633;" d="M262.8,377.4c0,2-1.7,3.7-3.7,3.7h-22.2c-2,0-3.7-1.7-3.7-3.7l0,0c0-2,1.7-3.7,3.7-3.7h22.2
		C261.2,373.7,262.8,375.4,262.8,377.4L262.8,377.4z"/>
	<path style="fill:#3B3633;" d="M262.8,385.2c0,2-1.7,3.7-3.7,3.7h-22.2c-2,0-3.7-1.7-3.7-3.7l0,0c0-2,1.7-3.7,3.7-3.7h22.2
		C261.2,381.5,262.8,383.1,262.8,385.2L262.8,385.2z"/>
	<circle style="fill:#3B3633;" cx="302.9" cy="409.1" r="4.9"/>
	<circle style="fill:#3B3633;" cx="288.9" cy="395.7" r="4.9"/>
	<circle style="fill:#3B3633;" cx="272.2" cy="386.5" r="4.9"/>
</g>
<g>
	<path style="fill:#CED6E4;" d="M232.2,85.9c1.5,0.4,2.5,2.1,2,3.8c-0.4,1.7-2,2.8-3.6,2.4c-1.5-0.4-2.5-2.1-2-3.8
		C229,86.5,230.6,85.5,232.2,85.9z"/>
	
		<rect x="233.481" y="86.568" transform="matrix(-0.2428 0.9701 -0.9701 -0.2428 378.556 -115.9507)" style="fill:#CED6E4;" width="2.1" height="6.4"/>
	
		<ellipse transform="matrix(-0.9702 -0.2425 0.2425 -0.9702 441.466 212.7649)" style="fill:#CED6E4;" cx="233.827" cy="79.214" rx="2.9" ry="3.2"/>
	
		<rect x="235.878" y="76.747" transform="matrix(-0.2425 0.9701 -0.9701 -0.2425 371.946 -130.5204)" style="fill:#CED6E4;" width="2.1" height="6.4"/>
	
		<ellipse transform="matrix(-0.9702 -0.2422 0.2422 -0.9702 448.6206 193.9489)" style="fill:#CED6E4;" cx="236.232" cy="69.399" rx="2.9" ry="3.2"/>
	
		<rect x="238.281" y="67.002" transform="matrix(-0.2423 0.9702 -0.9702 -0.2423 365.4311 -144.988)" style="fill:#CED6E4;" width="2.1" height="6.4"/>
	<path style="fill:#CED6E4;" d="M239.5,56.6c1.5,0.4,2.5,2.1,2,3.8c-0.4,1.7-2,2.8-3.6,2.4c-1.5-0.4-2.5-2.1-2-3.8
		C236.3,57.3,237.9,56.2,239.5,56.6z"/>
	
		<rect x="240.813" y="57.177" transform="matrix(-0.2421 0.9703 -0.9703 -0.2421 358.9965 -159.6747)" style="fill:#CED6E4;" width="2.1" height="6.4"/>
	
		<ellipse transform="matrix(-0.9702 -0.2425 0.2425 -0.9702 462.9741 156.8567)" style="fill:#CED6E4;" cx="241.14" cy="49.937" rx="2.9" ry="3.2"/>
	
		<rect x="243.21" y="47.453" transform="matrix(-0.2423 0.9702 -0.9702 -0.2423 352.5873 -174.055)" style="fill:#CED6E4;" width="2.1" height="6.4"/>
	
		<ellipse transform="matrix(-0.9701 -0.2425 0.2425 -0.9701 470.0874 138.1043)" style="fill:#CED6E4;" cx="243.544" cy="40.12" rx="2.9" ry="3.2"/>
	
		<rect x="245.603" y="37.72" transform="matrix(-0.2423 0.9702 -0.9702 -0.2423 346.1178 -188.4686)" style="fill:#CED6E4;" width="2.1" height="6.4"/>
</g>
<path style="fill:#542A14;" d="M247.8,323.2c6.1-0.1,13.3-1.3,13.2-6l-3.7-201.9c0,0,0.3-22.8,14.6-28.8c0,0-3.4-12.9-4.9-20.7
	c-1.5-7.7-6.7-22.4,4.1-21.6c0,0,0.4-13.4-10.4-15.6c0,0-7.6-3.4-13,15.3l-14,55c0,0,6.3,5.3,5.3,14.4c0,0-3.7,201.8-3.7,204
	S238.8,323.3,247.8,323.2z"/>
<g>
	<path style="fill:#59514D;" d="M257.3,115.3c0,0,0-0.3,0-0.8H239c0,0.3,0,0.7,0,1.2h18.3V115.3z"/>
	<path style="fill:#59514D;" d="M257.6,131.4h-18.9c0,0.4,0,0.8,0,1.2h18.9V131.4z"/>
	<path style="fill:#59514D;" d="M257.9,146.4h-19.5c0,0.4,0,0.8,0,1.2h19.5V146.4z"/>
	<path style="fill:#59514D;" d="M238.1,160.4c0,0.4,0,0.8,0,1.2h20v-1.2H238.1z"/>
	<path style="fill:#59514D;" d="M258.4,174h-20.5c0,0.4,0,0.8,0,1.2h20.5V174z"/>
	<path style="fill:#59514D;" d="M258.6,186.3h-20.9c0,0.4,0,0.8,0,1.2h20.9V186.3z"/>
	<path style="fill:#59514D;" d="M237.5,199.5h21.4v-1.2h-21.3C237.5,198.7,237.5,199.1,237.5,199.5z"/>
	<path style="fill:#59514D;" d="M237.3,210.6h21.8v-1.2h-21.8C237.3,209.8,237.3,210.2,237.3,210.6z"/>
	<path style="fill:#59514D;" d="M237.1,221.1h22.2v-1.2h-22.2C237.1,220.3,237.1,220.7,237.1,221.1z"/>
	<path style="fill:#59514D;" d="M236.9,230.6h22.5v-1.2h-22.5C236.9,229.9,236.9,230.3,236.9,230.6z"/>
	<path style="fill:#59514D;" d="M236.7,240.2h22.9V239h-22.8C236.7,239.4,236.7,239.8,236.7,240.2z"/>
	<path style="fill:#59514D;" d="M236.5,249.9h23.2v-1.2h-23.2C236.5,249.1,236.5,249.5,236.5,249.9z"/>
	<path style="fill:#59514D;" d="M236.4,258.3h23.5v-1.2h-23.5C236.4,257.5,236.4,257.9,236.4,258.3z"/>
	<path style="fill:#59514D;" d="M236.2,265.7h23.9v-1.2h-23.8C236.3,264.9,236.3,265.3,236.2,265.7z"/>
	<path style="fill:#59514D;" d="M236.1,272.9h24.1v-1.2h-24C236.1,272.1,236.1,272.5,236.1,272.9z"/>
	<path style="fill:#59514D;" d="M236,280.1h24.2v-1.2h-24.1C236,279.3,236,279.7,236,280.1z"/>
	<path style="fill:#59514D;" d="M235.8,287.1h24.6v-1.2h-24.6C235.9,286.3,235.9,286.7,235.8,287.1z"/>
	<path style="fill:#59514D;" d="M235.8,293.1h24.8v-1.2h-24.8C235.8,292.3,235.8,292.7,235.8,293.1z"/>
	<path style="fill:#59514D;" d="M235.8,299.3h25v-1.2h-25C235.8,298.5,235.8,298.9,235.8,299.3z"/>
	<path style="fill:#59514D;" d="M235.6,305.1h25.3v-1.2h-25.2C235.6,304.4,235.6,304.8,235.6,305.1z"/>
	<path style="fill:#59514D;" d="M235.5,310.2h25.4V309h-25.4C235.5,309.4,235.5,309.8,235.5,310.2z"/>
	<path style="fill:#59514D;" d="M235.4,315.5H261v-1.2h-25.6C235.4,314.7,235.4,315.1,235.4,315.5z"/>
	<path style="fill:#59514D;" d="M236.4,319.7h23.7c0.3-0.4,0.5-0.7,0.6-1.2h-25.1C235.8,318.9,236.1,319.3,236.4,319.7z"/>
	<path style="fill:#59514D;" d="M264.4,411.7c0,0.7-0.6,1.3-1.4,1.3h-29.4c-0.8,0-1.4-0.6-1.4-1.3V397c0-0.7,0.6-1.3,1.4-1.3H263
		c0.8,0,1.4,0.6,1.4,1.3V411.7z"/>
</g>
<path style="fill:#E2DBD7;" d="M263,413.6h-29.4c-1.1,0-2-0.8-2-1.9V397c0-1,0.9-1.9,2-1.9H263c1.1,0,2,0.8,2,1.9v14.7
	C265,412.7,264.1,413.6,263,413.6z M233.6,396.3c-0.5,0-0.9,0.3-0.9,0.7v14.7c0,0.4,0.4,0.7,0.9,0.7H263c0.5,0,0.9-0.3,0.9-0.7V397
	c0-0.4-0.4-0.7-0.9-0.7H233.6z"/>
<path d="M251.4,466.8l-0.8-2.7c-0.1-0.3-0.4-0.5-0.7-0.5h-3.8c-0.3,0-0.6,0.2-0.7,0.5l-0.8,2.8c-0.1,0.2,0,0.4,0.1,0.6
	s0.3,0.3,0.6,0.3h5.4l0,0c0.4,0,0.7-0.3,0.7-0.7C251.5,467,251.4,466.9,251.4,466.8z"/>
<g>
	<rect x="246.2" y="76.2" style="fill:#E5DFDC;" width="0.6" height="336.4"/>
	
		<rect x="76.288" y="238.735" transform="matrix(-4.200000e-004 -1 1 -4.200000e-004 11.1587 489.2234)" style="fill:#E5DFDC;" width="347.6" height="0.6"/>
	
		<rect x="74.726" y="233.105" transform="matrix(-0.0061 -1 1 -0.0061 22.0295 488.706)" style="fill:#E5DFDC;" width="358.307" height="0.6"/>
	
		<rect x="73.364" y="227.969" transform="matrix(-0.0103 -0.9999 0.9999 -0.0103 32.3004 488.5072)" style="fill:#E5DFDC;" width="369.083" height="0.6"/>
	
		<rect x="238.897" y="97.299" transform="matrix(-0.9999 -0.0134 0.0134 -0.9999 474.9564 513.0781)" style="fill:#E5DFDC;" width="0.6" height="315.297"/>
	
		<rect x="242.588" y="87.094" transform="matrix(-0.9999 -0.01 0.01 -0.9999 483.2567 502.3952)" style="fill:#E5DFDC;" width="0.6" height="325.784"/>
</g>
<g>
	<circle style="fill:#CED6E4;" cx="254.5" cy="43.4" r="3.1"/>
	<circle style="fill:#CED6E4;" cx="251.4" cy="54.3" r="3.1"/>
	<circle style="fill:#CED6E4;" cx="248.9" cy="65.2" r="3.1"/>
	<circle style="fill:#CED6E4;" cx="246.3" cy="75.8" r="3.1"/>
	<circle style="fill:#CED6E4;" cx="243.3" cy="86.7" r="3.1"/>
	<path style="fill:#CED6E4;" d="M237.8,97.2c0-1.7,1.3-3.1,3-3.1s3.1,1.3,3.1,3s-1.3,3.1-3,3.1S237.8,98.9,237.8,97.2z"/>
</g>
<g>
</g>
<g>
</g>
<g>
</g>
<g>
</g>
<g>
</g>
<g>
</g>
<g>
</g>
<g>
</g>
<g>
</g>
<g>
</g>
<g>
</g>
<g>
</g>
<g>
</g>
<g>
</g>
<g>
</g>
</svg>
