<?xml version="1.0" encoding="utf-8"?>
<!-- Generator: Adobe Illustrator 21.0.0, SVG Export Plug-In . SVG Version: 6.00 Build 0)  -->
<svg version="1.1" id="Layer_1" xmlns="http://www.w3.org/2000/svg" xmlns:xlink="http://www.w3.org/1999/xlink" x="0px" y="0px"
	 viewBox="0 0 1400 980" enable-background="new 0 0 1400 980" xml:space="preserve">
<g>
	<g>
		<g>
			<rect id="XMLID_29_" x="0" y="0" fill="#B25538" width="1400" height="980"/>
		</g>
	</g>
	<g>
		<g>
			<g>
				<rect id="XMLID_5_" x="3.5" y="286.9" fill="#DAD7C5" width="1393" height="156.1"/>
			</g>
		</g>
		<g>
			<g>
				<rect id="XMLID_6_" x="3.5" y="536.9" fill="#DAD7C5" width="1393" height="156.1"/>
			</g>
		</g>
	</g>
	<g>
		<polygon fill="#C2957F" points="703.6,295.4 719.7,302.3 711.7,368.4 646.2,379.2 654.4,330.6 		"/>
		<g>
			<path fill="#DDBEAA" d="M577,482.9c-1.4,0-2.8-0.3-4.2-1c-1.5-0.7-2.4-1.9-2.9-3.7c-4.4-18,46.1-93.5,59.1-110
				c15.5-19.8,3.4-47.4,3.2-47.7l1.8-0.8c0.1,0.3,12.8,29-3.5,49.7c-15.7,20-62.7,92.1-58.8,108.3c0.3,1.2,0.9,2,1.8,2.4
				c2.4,1.1,4.6,1.1,6.6-0.1c8.4-4.8,11-26.9,11-27.1l1.9,0.2c-0.1,0.9-2.7,23.3-12,28.6C579.9,482.6,578.5,482.9,577,482.9z"/>
		</g>
		<path fill="#DDBEAA" d="M627.2,188.7c0,0-21,20.1-21.6,60.2c0,0,13.2,13.2-16.8,43.7c0,0,3.2,2.3,7.1,2.3c3.9,0,13.4-2.7,15.5,3.6
			s-1,15.6-1,15.6l8.7,22.2l-4.8,14.4l32.9-3.9l42.2-42.5l14.1-74.3L627.2,188.7z"/>
		<g>
			<path fill="#C2957F" d="M594.4,294.8c0.5,0.1,1,0.1,1.6,0.1c3.9,0,13.4-2.7,15.5,3.6s-1,15.6-1,15.6l0.2,0.5l10.2-13.9l-7.1-10.8
				L594.4,294.8z"/>
			<path fill="#C2957F" d="M626,334l-11.8-10.1l4.9,12.5l-0.3,1C622.8,335.4,626,334,626,334z"/>
			<polygon fill="#C2957F" points="693.1,272 680.2,271.4 677.5,281.3 677.8,285.7 671.8,289.6 671.8,286.3 674.5,283.9 
				670.6,278.9 675.7,269.7 688.3,248.3 633.5,241.1 611.6,258 617.3,264 646.2,269.7 633.2,320.2 636.4,333.7 622.4,349.8 
				647.3,346.8 697.1,313.9 			"/>
		</g>
		<polygon fill="#5F3227" points="607.9,246.7 609.7,252.1 636.4,255.4 628.1,247.8 		"/>
		<polygon fill="#5F3227" points="615.7,258 617.3,264 626,261 		"/>
		<path fill="#5F3227" d="M635.9,198.3l-37.6,13.3c0,0-26,27.4,5.1,40.3l-3.2-21.9c0,0,8.6,19.2,26.9,20.7
			c18.4,1.5,37.7-1.2,37.7-1.2v35l5.4-7.4c0,0,7,9.7,18.1,5.5c0,0,2.9,16.1-15.2,21.6l17.4,33.2l18.1-5.2l13,5.2l8.6-18.7l9.5,4.2
			c0,0,20.9-37.1,7.1-47.9c-13.7-10.8-21.7-33.1-21.7-33.1L635.9,198.3z"/>
		<polygon fill="#834C3C" points="694.5,153.4 625.5,149.1 609.2,207.3 551.9,193 746.8,275 769,213.6 		"/>
		<polygon fill="#512820" points="601.8,800.8 654.4,970.6 742.3,970.6 719.7,885.7 732,857.9 726.2,790.5 		"/>
		<path fill="#5F3227" d="M897.7,572.9h-10c-4.8,0-8.8-3.6-8.8-8.1V369.1c0-4.5-3.9-8.1-8.8-8.1H868c-4.8,0-8.8-3.6-8.8-8.1V78.4
			c0-19.5-17.1-35.4-38.2-35.4h-30.7c-11.7,0-21.3,8.8-21.3,19.7v290.1c0,4.5-3.9,8.1-8.8,8.1l0,0c-4.8,0-8.8,3.6-8.8,8.1v444.4
			c0,4.5,3.9,8.1,8.8,8.1h110c4.8,0,8.8-3.6,8.8-8.1v-3.1c0-4.5,3.9-8.1,8.8-8.1h10c4.8,0,8.8-3.6,8.8-8.1V581
			C906.5,576.5,902.6,572.9,897.7,572.9z"/>
		<g>
			<path fill="#512820" d="M859.2,78.4c0-19.5-17.1-35.4-38.2-35.4h-30.7c-11.7,0-21.3,8.8-21.3,19.7V72l40.8,58.6L769,147.9v112.6
				l90.2,48.8V78.4z"/>
			<path fill="#512820" d="M897.7,572.9h-10c-4.8,0-8.8-3.6-8.8-8.1V369.1c0-4.5-3.9-8.1-8.8-8.1H868c-4.8,0-8.8-3.6-8.8-8.1v-5.7
				l-90.2-34v39.7c0,4.5-3.9,8.1-8.8,8.1s-8.8,3.6-8.8,8.1v444.4c0,4.5,3.9,8.1,8.8,8.1h110c4.8,0,8.8-3.6,8.8-8.1v-3.1
				c0-4.5,3.9-8.1,8.8-8.1h10c4.8,0,8.8-3.6,8.8-8.1V581C906.5,576.5,902.6,572.9,897.7,572.9z"/>
		</g>
		<polygon fill="#834C3C" points="751.5,323.8 594.4,380 588.1,413.2 599.4,428.5 544.6,810.3 580.5,836.3 769,819.3 760.2,749.2 
			803.3,682.7 769,457.4 815.6,435.8 		"/>
		<polygon fill="#5F3227" points="666.1,167.2 694.5,153.4 625.5,149.1 609.2,207.3 551.9,193 653.2,235.6 		"/>
		<path fill="#723D31" d="M769,457.4l46.6-21.6l-64.1-112l-134.1,48l8.7,19.1l54.1-17.3L620.8,410l-13.2,120l33.3,50.1l-52,113.5
			l26.8,45.4l-49.3,87.1l14.1,10.2L769,819.3l-8.8-70.1l43.1-66.5L769,457.4z M730.8,641.1l-26.8,41l-6.9,19.5L672,681.1l19-51.7
			l28.7-13.7L704,592.3h-21l-11-74.2l19,37.1h28.7l26.7,53.7L726,624.5L730.8,641.1z"/>
		<path fill="#5F3227" d="M672,693.6c0,0,17.4,91.4,64,90.8L672,693.6z"/>
		<path fill="#512820" d="M719.7,390.8l-34.6-6.3c-116,56.6-30.8,175.7-30.8,175.7C624.7,447.9,719.7,390.8,719.7,390.8z"/>
		<rect x="598.1" y="432.3" fill="#C2957F" width="7.3" height="226.4"/>
		<g>
			<path fill="#DDBEAA" d="M564.1,674.5c-0.1-0.1-12.5-5.6-10.5-23c0.9-8.1,8.8-21.7,17.2-36.1c9.2-15.9,18.8-32.3,18.9-41.5
				c0.1-6.2,0.3-20.9,0.4-37.8c0.3-32.2,0.8-72.3,1.2-82.9c0.4-10.1,27.6-27.8,53.9-45c16.9-11,32.9-21.4,37-27.1
				c3.7-5.1,3.1-7.7,2.2-9.5c-1.3-2.5-4.4-4.8-8.3-7.6c-4.5-3.3-10.1-7.3-15.1-13.6c-13.6-17.1,11.5-64.9,12.6-66.9l1.7,0.9
				c-0.3,0.5-25.5,48.6-12.7,64.8c4.8,6,10.3,10,14.7,13.2c4.1,3,7.4,5.3,8.9,8.3c1.7,3.3,0.9,6.9-2.4,11.5
				c-4.3,6-19.7,16-37.6,27.6c-23.4,15.3-52.6,34.3-53,43.4c-0.4,10.6-0.8,50.6-1.2,82.8c-0.2,17-0.3,31.6-0.4,37.8
				c-0.2,9.7-9.8,26.4-19.2,42.5c-8.2,14.2-16,27.6-16.9,35.4c-1.8,16,8.8,20.7,8.9,20.7L564.1,674.5z"/>
		</g>
	</g>
	<path fill="#FFFFFF" d="M0,0l0,980h1400V0L0,0z M28.3,88.1c0-37.8,30.6-68.4,68.4-68.4h1206.7c37.8,0,68.4,30.6,68.4,68.4v803.7
		c0,37.8-30.6,68.4-68.4,68.4H96.6c-37.8,0-68.4-30.6-68.4-68.4V88.1z"/>
</g>
</svg>
